<?xml version="1.0" encoding="UTF-8" standalone="no"?>
<svg
   xmlns:dc="http://purl.org/dc/elements/1.1/"
   xmlns:cc="http://creativecommons.org/ns#"
   xmlns:rdf="http://www.w3.org/1999/02/22-rdf-syntax-ns#"
   xmlns:svg="http://www.w3.org/2000/svg"
   xmlns="http://www.w3.org/2000/svg"
   xmlns:sodipodi="http://sodipodi.sourceforge.net/DTD/sodipodi-0.dtd"
   xmlns:inkscape="http://www.inkscape.org/namespaces/inkscape"
   version="1.1"
   id="Layer_1"
   x="0px"
   y="0px"
   viewBox="0 0 297 297"
   style="enable-background:new 0 0 297 297;"
   xml:space="preserve"
   sodipodi:docname="rocket.svg"
   inkscape:version="1.0rc1 (09960d6, 2020-04-09)"><metadata
   id="metadata55"><rdf:RDF><cc:Work
       rdf:about=""><dc:format>image/svg+xml</dc:format><dc:type
         rdf:resource="http://purl.org/dc/dcmitype/StillImage" /><dc:title /></cc:Work></rdf:RDF></metadata><defs
   id="defs53" /><sodipodi:namedview
   inkscape:document-rotation="0"
   pagecolor="#ffffff"
   bordercolor="#666666"
   borderopacity="1"
   objecttolerance="10"
   gridtolerance="10"
   guidetolerance="10"
   inkscape:pageopacity="0"
   inkscape:pageshadow="2"
   inkscape:window-width="1440"
   inkscape:window-height="847"
   id="namedview51"
   showgrid="false"
   inkscape:pagecheckerboard="true"
   inkscape:zoom="1.364292"
   inkscape:cx="187.5552"
   inkscape:cy="76.650492"
   inkscape:window-x="0"
   inkscape:window-y="25"
   inkscape:window-maximized="1"
   inkscape:current-layer="g18" />
<g
   style="display:inline"
   id="g18">
	<g
   id="g16"
   style="fill:#ffffff">
		<g
   id="g14"
   style="fill:#ffffff">
			<path
   inkscape:connector-curvature="0"
   d="m 147.655,71.797 c -17.947,0 -32.548,14.601 -32.548,32.548 0,17.947 14.601,32.548 32.548,32.548 17.947,0 32.548,-14.601 32.548,-32.548 0,-17.947 -14.6,-32.548 -32.548,-32.548 z m 0,49.779 c -9.501,0 -17.231,-7.73 -17.231,-17.231 0,-9.501 7.73,-17.231 17.231,-17.231 9.501,0 17.231,7.73 17.231,17.231 0,9.501 -7.73,17.231 -17.231,17.231 z"
   id="path10"
   style="fill:#ffffff" />
			<path
   inkscape:connector-curvature="0"
   d="M 245.437,183.301 C 236.149,169.046 224.97,162.494 219.133,159.855 222.267,139.79 223.319,119.76 220.26,102.66 209.149,40.542 155.333,3.222 153.048,1.663 c -3.253,-2.217 -7.533,-2.217 -10.786,0 -2.285,1.558 -56.101,38.879 -67.211,100.996 -3.096,17.312 -1.979,37.627 1.246,57.941 -6.122,3.043 -16.221,9.637 -24.734,22.7 -16,24.555 -18.687,59.459 -7.985,103.742 0.74,3.065 2.943,5.569 5.888,6.695 1.107,0.423 2.264,0.63 3.416,0.63 1.916,0 3.815,-0.575 5.436,-1.692 l 46.663,-32.181 c 1.24,3.104 2.056,5.039 2.273,5.549 1.502,3.534 4.971,5.828 8.81,5.828 h 22.018 v 15.556 c 0,5.287 4.286,9.573 9.573,9.573 5.287,0 9.573,-4.286 9.573,-9.573 v -15.556 h 22.018 c 3.839,0 7.308,-2.294 8.81,-5.828 0.237,-0.558 1.193,-2.828 2.637,-6.464 l 47.989,33.096 c 1.621,1.117 3.521,1.692 5.436,1.692 1.152,0 2.31,-0.208 3.416,-0.63 2.945,-1.126 5.147,-3.629 5.888,-6.695 10.701,-44.282 8.015,-79.186 -7.985,-103.741 z M 147.655,21.617 c 6.194,5.032 16.822,14.516 27.123,27.684 H 120.532 C 130.835,36.13 141.464,26.647 147.655,21.617 Z m -88.39,247.148 c -10.448,-57.725 9.367,-80.269 20.823,-88.232 5.157,23.501 12.272,45.624 17.937,61.501 z m 113.526,-16.04 H 157.228 V 176.86 c 0,-5.287 -4.286,-9.573 -9.573,-9.573 -5.287,0 -9.573,4.286 -9.573,9.573 v 75.865 H 122.515 C 113.941,230.991 85.397,153.55 93.897,106.03 96.682,90.461 102.736,76.553 109.948,64.617 h 75.413 c 7.212,11.936 13.267,25.844 16.051,41.413 8.489,47.465 -20.048,124.948 -28.621,146.695 z m 64.945,16.04 -40.116,-27.666 c 5.688,-16.028 12.744,-38.143 17.816,-61.546 11.11,7.005 33.212,28.918 22.3,89.212 z"
   id="path12"
   style="fill:#ffffff" />
		</g>
	</g>
<path
   inkscape:connector-curvature="0"
   id="path34"
   d="M 122.15878,250.89788 C 106.44056,210.33831 96.148468,170.70568 93.291425,139.73593 92.310834,129.10652 92.867924,113.08911 94.504888,104.84659 96.836024,93.108742 101.48912,80.463666 107.35103,69.93639 l 2.7231,-4.890356 37.76249,0.15167 37.76249,0.15167 4.45796,8.842661 c 4.77891,9.479284 8.55357,19.98178 10.59371,29.475535 1.62102,7.5434 2.22951,26.81426 1.19638,37.88876 -1.40998,15.11404 -5.35967,35.21902 -11.02853,56.13821 -2.73517,10.09331 -12.80589,40.76665 -16.25811,49.5189 l -1.97647,5.01084 -7.49335,0.16499 -7.49335,0.16499 v -38.80041 -38.80041 l -1.3264,-2.6279 c -3.31662,-6.571 -12.72909,-6.99824 -16.94843,-0.76931 l -1.47378,2.17571 -0.16725,39.39355 -0.16725,39.39355 h -7.3636 -7.36361 z m 33.8797,-114.85685 c 5.63547,-1.45299 10.27867,-4.19971 14.82452,-8.76956 18.07936,-18.17483 9.22775,-48.951868 -15.7742,-54.846825 -22.12734,-5.217184 -42.44381,13.097739 -39.89604,35.965545 1.46842,13.17999 11.4949,24.63955 24.26373,27.73174 4.38554,1.06203 12.29884,1.02342 16.58199,-0.0809 z"
   style="fill:#000000;stroke:none;stroke-width:0.589511" /><path
   inkscape:connector-curvature="0"
   id="path36"
   d="m 121.63719,48.767948 c 0,-1.517787 19.86568,-22.107639 24.49189,-25.384704 l 1.79573,-1.272036 6.16267,5.710614 c 6.66877,6.179589 12.83652,12.561812 17.32392,17.92632 l 2.83547,3.389686 h -26.30484 c -14.46766,0 -26.30484,-0.166446 -26.30484,-0.36988 z"
   style="fill:#000000;stroke:none;stroke-width:0.589511" /><path
   inkscape:connector-curvature="0"
   id="path38"
   d="m 58.904557,265.07685 c -3.165602,-21.68939 -2.764469,-39.94653 1.179906,-53.70212 2.040986,-7.11773 6.623222,-16.26762 10.729653,-21.42516 3.992983,-5.01506 8.844663,-9.26358 9.211142,-8.066 0.13102,0.42814 1.204438,4.75764 2.385374,9.62111 2.710981,11.16468 7.57793,27.82103 11.793297,40.36067 2.60316,7.74374 3.113905,9.85219 2.526193,10.42862 -0.91478,0.89723 -35.861246,25.00331 -36.759842,25.35695 -0.392209,0.15436 -0.81739,-0.8726 -1.065723,-2.57407 z"
   style="fill:#000000;stroke:none;stroke-width:0.589511" /><path
   inkscape:connector-curvature="0"
   id="path40"
   d="m 217.83524,254.61809 c -10.47822,-7.25033 -19.19371,-13.32482 -19.36776,-13.49888 -0.17405,-0.17404 1.15953,-4.77652 2.96351,-10.22772 5.01852,-15.16475 7.26886,-22.86153 10.94536,-37.436 l 3.37429,-13.37646 3.30517,2.59411 c 10.41241,8.17235 17.49521,22.23877 20.17907,40.07561 1.0162,6.75362 1.18234,23.34839 0.30984,30.94931 -0.97067,8.45622 -1.89117,14.14938 -2.28386,14.12535 -0.20587,-0.0126 -8.9474,-5.955 -19.42562,-13.20532 z"
   style="fill:#000000;stroke:none;stroke-width:0.589511" /></g>
<g
   id="g20">
</g>
<g
   id="g22">
</g>
<g
   id="g24">
</g>
<g
   id="g26">
</g>
<g
   id="g28">
</g>
<g
   id="g30">
</g>
<g
   id="g32">
</g>
<g
   id="g34">
</g>
<g
   id="g36">
</g>
<g
   id="g38">
</g>
<g
   id="g40">
</g>
<g
   id="g42">
</g>
<g
   id="g44">
</g>
<g
   id="g46">
</g>
<g
   id="g48">
</g>
</svg>
